<?xml version="1.0" standalone="no"?>
<!DOCTYPE svg PUBLIC "-//W3C//DTD SVG 20010904//EN"
 "http://www.w3.org/TR/2001/REC-SVG-20010904/DTD/svg10.dtd">
<svg version="1.0" xmlns="http://www.w3.org/2000/svg"
 width="248.000000pt" height="203.000000pt" viewBox="0 0 248.000000 203.000000"
 preserveAspectRatio="xMidYMid meet">

<g transform="translate(0.000000,203.000000) scale(0.100000,-0.100000)"
fill="#000000" stroke="none">
<path d="M715 1119 c-33 -5 -71 -10 -85 -12 -14 -2 -36 -5 -50 -6 -23 -2 -24
-3 -5 -11 18 -8 15 -10 -17 -14 -6 0 -13 -6 -15 -12 -2 -7 20 -6 67 4 44 10
70 20 70 29 0 7 8 13 18 13 14 0 15 -2 2 -10 -11 -7 2 -10 44 -10 45 0 57 3
53 13 -4 10 2 13 19 9 13 -2 27 -8 30 -13 3 -5 24 -9 48 -9 23 0 66 -7 94 -15
29 -9 56 -13 61 -10 5 3 11 0 13 -7 3 -8 6 -9 11 -1 12 19 -92 56 -160 57 -35
1 -63 4 -63 9 0 8 -53 7 -135 -4z m-75 -29 c0 -5 -4 -10 -10 -10 -5 0 -10 5
-10 10 0 6 5 10 10 10 6 0 10 -4 10 -10z"/>
<path d="M1630 1123 c0 -4 -26 -8 -57 -9 -32 0 -76 -6 -98 -13 -35 -13 -37
-15 -18 -22 12 -4 37 -4 55 2 18 5 56 9 85 9 28 0 53 4 55 9 2 4 14 11 28 15
14 3 19 3 13 0 -28 -13 -10 -24 38 -24 31 0 48 4 44 10 -3 6 1 10 9 10 19 0
32 -20 14 -21 -7 -1 2 -5 21 -9 19 -5 51 -6 70 -4 26 3 31 2 16 -4 -17 -8 -17
-9 9 -16 16 -4 31 -5 34 -1 3 3 -2 5 -12 5 -9 0 -15 4 -12 8 11 18 -13 33 -55
35 -24 2 -49 6 -54 9 -17 10 -185 20 -185 11z m-113 -29 c-3 -3 -12 -4 -19 -1
-8 3 -5 6 6 6 11 1 17 -2 13 -5z m350 -10 c-3 -3 -12 -4 -19 -1 -8 3 -5 6 6 6
11 1 17 -2 13 -5z"/>
<path d="M1402 1067 c-12 -6 -22 -14 -22 -19 0 -4 -6 -8 -13 -8 -8 0 -22 -10
-33 -22 -19 -21 -18 -21 20 2 21 13 54 29 73 35 27 9 31 13 16 17 -10 3 -28 0
-41 -5z"/>
<path d="M1085 1050 c-3 -5 -2 -10 4 -10 5 0 31 -16 58 -36 39 -30 43 -32 23
-9 -38 41 -78 67 -85 55z"/>
<path d="M705 1029 c-84 -11 -186 -36 -199 -49 -7 -7 -6 -14 2 -22 8 -8 30 -7
89 6 104 24 304 32 374 16 81 -19 148 -58 169 -100 41 -81 159 -81 200 0 21
42 88 81 169 100 70 16 270 8 374 -16 59 -13 81 -14 89 -6 8 8 8 15 3 21 -17
17 -123 40 -234 52 -203 22 -370 -24 -434 -119 -46 -68 -88 -67 -136 3 -67 98
-247 141 -466 114z"/>
</g>
</svg>
